<?xml version="1.0" standalone="no"?>
<!DOCTYPE svg PUBLIC "-//W3C//DTD SVG 20010904//EN"
 "http://www.w3.org/TR/2001/REC-SVG-20010904/DTD/svg10.dtd">
<svg version="1.0" xmlns="http://www.w3.org/2000/svg"
 width="1320.000000pt" height="1320.000000pt" viewBox="0 0 1320.000000 1320.000000"
 preserveAspectRatio="xMidYMid meet">

<g transform="translate(0.000000,1320.000000) scale(0.100000,-0.100000)"
fill="#000000" stroke="none">
<path d="M6175 12419 c-534 -43 -1048 -150 -1510 -314 -1199 -426 -2224 -1224
-2922 -2275 -535 -807 -844 -1672 -948 -2655 -22 -209 -31 -727 -16 -951 78
-1145 468 -2207 1143 -3109 146 -196 353 -444 362 -434 3 4 629 3292 852 4478
96 510 165 915 264 1564 38 252 72 462 75 467 4 6 192 10 486 10 423 0 479 -2
479 -15 0 -9 -20 -191 -45 -405 -25 -214 -45 -394 -45 -400 0 -25 27 -6 55 38
62 98 175 242 266 337 266 279 549 446 864 510 106 22 313 22 426 1 218 -41
362 -117 505 -268 201 -212 317 -542 355 -1013 15 -189 6 -665 -16 -865 -127
-1156 -555 -2195 -1159 -2819 -304 -313 -646 -512 -1018 -592 -121 -26 -399
-36 -533 -20 -144 19 -286 56 -386 103 -49 22 -92 39 -95 35 -10 -9 -375
-1980 -370 -1994 3 -7 70 -55 148 -107 660 -432 1403 -731 2148 -865 833 -149
1694 -122 2493 80 1257 317 2384 1055 3180 2081 641 827 1047 1806 1176 2837
35 275 44 429 44 736 0 311 -9 464 -44 745 -110 885 -432 1747 -929 2490 -169
252 -383 527 -546 699 -65 69 -66 70 -157 92 -79 20 -119 23 -282 24 -182 0
-193 -1 -263 -27 -257 -94 -462 -322 -607 -676 -59 -145 -106 -319 -145 -535
-17 -94 -33 -180 -36 -189 -5 -17 24 -18 515 -18 287 0 521 -2 521 -5 0 -3
-34 -186 -75 -406 -41 -220 -75 -404 -75 -409 0 -6 -197 -10 -519 -10 l-518 0
-16 -82 c-9 -46 -206 -1071 -437 -2278 -232 -1207 -424 -2205 -427 -2217 l-5
-23 -559 0 c-307 0 -559 3 -559 8 1 4 198 1038 438 2297 l438 2290 -348 3
c-269 2 -348 5 -348 15 1 6 34 192 73 412 l73 400 356 3 355 2 37 188 c51 257
89 409 147 588 214 660 572 1140 1030 1378 58 31 145 71 193 89 l88 34 -43 30
c-24 16 -89 57 -144 90 -746 448 -1541 713 -2430 809 -176 19 -836 28 -1010
13z"/>
<path d="M5095 8296 c-64 -21 -145 -65 -217 -118 -266 -196 -533 -662 -663
-1160 -31 -119 -435 -2259 -435 -2305 0 -26 137 -107 236 -141 68 -22 97 -26
209 -26 110 -1 142 3 205 22 294 93 536 344 759 791 277 552 491 1482 491
2133 0 282 -27 455 -94 593 -46 97 -94 148 -174 187 -60 30 -75 33 -172 35
-67 2 -120 -2 -145 -11z"/>
</g>
</svg>
